<svg xmlns="http://www.w3.org/2000/svg" xmlns:xlink="http://www.w3.org/1999/xlink" viewBox="0 0 50 50" version="1.1" width="50px" height="50px">
    <g><path fill="rgba(255,255,255,.75)" d="M 21 3 C 11.6 3 4 10.6 4 20 C 4 29.398 11.6 37 21 37 C 24.3555 37 27.46 36.02 30.09 34.344 L 42.375 46.625 L 46.625 42.375 L 34.5 30.283 C 36.6797 27.422 38 23.8789 38 20 C 38 10.6 30.398 3 21 3 Z M 21 7 C 28.199 7 34 12.8 34 20 C 34 27.199 28.199 33 21 33 C 13.8 33 8 27.199 8 20 C 8 12.8 13.8 7 21 7 Z "/></g>
</svg>